<?xml version="1.0" standalone="no"?>
<!DOCTYPE svg PUBLIC "-//W3C//DTD SVG 20010904//EN"
 "http://www.w3.org/TR/2001/REC-SVG-20010904/DTD/svg10.dtd">
<svg version="1.0" xmlns="http://www.w3.org/2000/svg"
 width="192.000000pt" height="192.000000pt" viewBox="0 0 192.000000 192.000000"
 preserveAspectRatio="xMidYMid meet">
<metadata>
Created by potrace 1.14, written by Peter Selinger 2001-2017
</metadata>
<g transform="translate(0.000000,192.000000) scale(0.100000,-0.100000)"
fill="#000000" stroke="none">
<path d="M328 1593 c-10 -2 -18 -8 -18 -13 0 -5 -9 -7 -20 -5 -11 2 -20 -1
-20 -6 0 -6 -4 -8 -9 -4 -5 3 -12 1 -16 -5 -4 -6 -11 -8 -16 -5 -5 4 -9 2 -9
-4 0 -6 -7 -7 -17 -4 -9 4 -14 2 -11 -3 3 -5 0 -15 -8 -22 -8 -7 -14 -9 -14
-5 -1 4 -10 -3 -20 -16 -11 -13 -20 -19 -20 -15 0 5 -8 -3 -17 -16 -10 -14
-16 -26 -15 -28 2 -2 -4 -15 -13 -29 -10 -14 -17 -46 -18 -74 0 -32 -4 -46
-11 -42 -6 3 -5 0 2 -8 6 -7 12 -23 12 -36 0 -13 5 -23 10 -23 6 0 10 -12 10
-27 0 -14 3 -23 7 -20 7 8 39 -34 35 -46 -1 -5 2 -6 7 -3 5 4 14 -1 19 -9 4
-9 18 -17 30 -18 15 -1 22 -8 22 -22 0 -15 2 -17 9 -6 7 11 12 10 28 -5 10
-11 28 -20 38 -21 11 -2 30 -4 43 -5 12 -1 22 -5 22 -9 0 -9 120 -30 131 -24
4 3 11 0 15 -6 5 -8 3 -9 -7 -4 -8 5 -11 4 -6 -1 9 -9 14 -11 47 -13 12 0 20
-8 20 -18 0 -14 2 -15 9 -5 6 10 13 3 27 -25 27 -56 26 -59 -17 -104 -21 -22
-39 -35 -39 -27 0 8 -3 9 -8 3 -10 -15 -92 -12 -121 4 -50 27 -87 80 -77 107
3 8 1 14 -4 14 -6 0 -10 7 -10 15 0 10 -8 14 -22 11 -13 -2 -31 1 -42 6 -12 7
-16 7 -12 0 3 -6 2 -13 -4 -17 -5 -3 -10 -1 -10 5 0 7 -6 8 -19 1 -10 -6 -21
-7 -25 -4 -10 10 -37 13 -31 3 2 -4 -6 -7 -20 -7 -15 0 -22 4 -19 11 3 6 -1 3
-8 -6 -13 -15 -15 -15 -26 0 -10 15 -11 15 -5 -2 4 -13 3 -17 -4 -13 -20 12
-43 -4 -41 -29 1 -13 6 -24 11 -24 5 0 6 -7 3 -15 -3 -9 1 -18 8 -21 8 -3 13
-14 11 -25 -2 -10 0 -19 6 -19 5 0 9 -7 9 -15 0 -8 5 -15 10 -15 6 0 10 -5 10
-11 0 -7 13 -24 29 -40 16 -15 27 -30 23 -33 -5 -5 6 -8 25 -5 3 0 10 -6 15
-15 5 -9 27 -19 48 -22 22 -4 37 -10 35 -14 -3 -5 6 -7 20 -5 14 1 25 -2 25
-6 0 -5 5 -9 11 -9 5 0 7 6 4 13 -4 6 -1 5 7 -4 15 -18 51 -22 41 -5 -4 6 0 5
8 -1 18 -15 203 -17 194 -2 -4 5 -1 9 4 9 6 0 11 -5 11 -11 0 -8 6 -7 17 2 11
10 14 10 9 2 -4 -7 -2 -13 3 -13 6 0 11 5 11 10 0 6 5 10 11 10 6 0 7 -6 2
-12 -4 -7 5 -5 20 5 15 10 32 15 37 12 6 -4 13 0 16 9 3 8 12 12 19 10 7 -3
25 6 40 20 15 14 32 26 37 26 5 0 7 4 3 9 -3 6 1 13 9 18 8 4 16 15 18 23 2 8
9 21 16 28 6 7 12 21 12 31 0 9 6 23 13 30 10 11 9 12 -3 6 -13 -7 -13 -6 -2
7 7 9 12 41 11 81 -1 35 2 71 6 77 5 9 4 11 -3 6 -11 -6 -16 6 -13 27 0 4 -4
7 -10 7 -5 0 -7 5 -4 10 3 6 1 10 -4 10 -6 0 -11 6 -11 13 0 15 -41 53 -53 49
-5 -1 -6 2 -3 7 8 13 -21 34 -35 25 -8 -4 -9 -3 -5 4 4 7 -3 14 -19 18 -14 3
-25 11 -25 18 0 6 -5 4 -10 -4 -5 -8 -10 -10 -10 -5 0 15 -67 38 -81 29 -7 -4
-9 -3 -5 4 3 6 2 13 -4 17 -5 3 -10 1 -10 -5 0 -7 -5 -8 -12 -3 -7 4 -23 8
-36 8 -13 0 -27 7 -31 14 -5 7 -11 12 -15 12 -34 -5 -66 1 -60 10 4 8 0 8 -15
0 -17 -10 -22 -9 -27 4 -3 8 -9 13 -13 11 -10 -6 -24 5 -38 30 -9 17 -8 26 5
45 20 31 34 40 49 34 7 -2 17 4 22 13 6 10 11 12 11 5 0 -7 5 -13 11 -13 5 0
7 6 3 13 -6 8 -3 8 9 -1 9 -8 20 -11 26 -8 5 3 12 0 14 -6 4 -10 6 -10 6 1 1
17 60 -45 74 -79 5 -14 10 -28 9 -32 -2 -8 83 -2 98 7 5 3 10 2 10 -4 0 -5 8
-8 18 -6 9 2 17 4 17 5 0 8 45 4 45 -4 0 -6 5 -3 11 7 10 17 13 17 27 3 15
-13 20 -13 42 6 14 11 20 17 13 14 -7 -4 -12 2 -12 16 0 13 -1 33 -1 46 0 12
-4 22 -9 22 -6 0 -13 10 -17 22 -4 13 -14 29 -23 36 -9 8 -10 10 -2 6 9 -5 12
-3 7 4 -4 7 -14 12 -22 12 -8 0 -13 3 -11 8 5 9 -24 36 -44 40 -8 2 -23 11
-33 20 -11 9 -17 12 -13 6 3 -6 0 -11 -8 -11 -8 0 -13 5 -12 11 1 6 -6 10 -15
8 -10 -2 -18 2 -18 9 0 9 -3 9 -14 0 -11 -9 -16 -9 -22 0 -5 8 -3 9 6 4 9 -5
11 -4 6 3 -5 8 -15 8 -32 2 -17 -7 -23 -7 -19 0 4 6 -30 10 -95 10 -56 0 -99
-4 -96 -8 3 -5 -1 -9 -9 -9 -8 0 -12 4 -9 9 3 4 4 7 2 7 -2 -1 -11 -3 -20 -6z"/>
<path d="M994 1522 c-6 -4 -10 -18 -10 -32 0 -14 -3 -31 -8 -38 -4 -7 -2 -12
4 -12 7 0 8 -6 1 -17 -5 -10 -5 -26 0 -40 5 -14 5 -23 -1 -23 -6 0 -6 -9 0
-24 5 -13 6 -27 3 -30 -9 -9 -9 -51 0 -57 6 -4 5 -14 -1 -25 -6 -11 -7 -27 -1
-41 5 -14 5 -23 -1 -23 -6 0 -6 -9 -1 -23 5 -13 6 -30 1 -37 -5 -7 -4 -24 1
-37 5 -14 5 -23 -1 -23 -6 0 -6 -9 0 -24 5 -13 6 -27 3 -30 -9 -9 -9 -51 0
-57 6 -4 5 -14 -1 -25 -6 -11 -7 -27 -1 -41 5 -14 5 -23 -1 -23 -6 0 -6 -9 -1
-23 5 -13 6 -30 1 -37 -5 -7 -4 -24 1 -37 5 -14 5 -23 -1 -23 -6 0 -6 -9 0
-24 4 -13 5 -27 0 -32 -4 -5 -4 -19 1 -31 7 -20 15 -23 67 -23 32 0 64 5 71
13 11 10 13 9 7 -1 -5 -8 2 -12 23 -12 17 0 32 6 32 13 1 6 2 127 3 269 1 169
-2 254 -9 251 -5 -3 -5 0 2 7 17 18 33 3 33 -31 0 -16 5 -29 11 -29 5 0 8 -4
5 -9 -4 -5 0 -12 6 -14 10 -4 10 -6 1 -6 -9 -1 -10 -8 -4 -23 4 -13 7 -31 5
-41 -1 -9 2 -15 6 -12 5 3 12 -19 15 -50 4 -30 10 -53 14 -50 4 2 7 -5 6 -17
-1 -12 5 -40 12 -62 8 -22 15 -53 15 -68 1 -15 4 -26 7 -23 4 2 7 -4 8 -13 1
-9 5 -33 10 -52 l9 -35 94 -2 95 -3 2 31 c1 17 7 37 14 45 6 7 8 18 4 24 -3 5
-2 10 4 10 6 0 8 6 5 14 -3 8 -1 17 5 20 6 4 8 13 4 21 -3 8 0 15 5 15 6 0 9
9 7 20 -2 11 3 27 11 35 9 9 11 15 4 15 -7 0 -5 6 4 16 18 18 21 28 5 18 -8
-4 -8 0 0 15 7 11 9 21 5 21 -3 0 -1 7 6 15 6 8 9 19 5 25 -3 5 -2 10 3 10 6
0 8 9 5 20 -3 12 0 20 6 20 7 0 9 5 6 10 -3 6 0 10 7 10 9 0 9 3 -2 10 -8 5
-10 10 -5 10 6 0 11 10 12 23 4 38 9 56 18 64 4 4 5 2 1 -4 -5 -8 -1 -13 11
-14 11 0 13 -3 5 -6 -10 -4 -10 -8 0 -21 7 -9 8 -13 2 -9 -13 8 -14 -100 -1
-121 5 -7 2 -14 -7 -18 -9 -3 -13 -11 -9 -17 9 -15 12 -87 2 -82 -4 3 -4 -8 1
-24 4 -16 6 -32 3 -35 -3 -3 0 -12 7 -21 11 -13 10 -14 -5 -9 -14 6 -16 4 -10
-6 5 -8 8 -40 8 -72 0 -37 4 -58 11 -58 6 0 4 -5 -4 -10 -10 -7 19 -9 90 -7
l105 2 0 47 c0 25 4 44 8 41 5 -3 4 4 -2 15 -8 15 -8 22 2 25 9 4 9 6 0 6 -7
1 -13 6 -13 12 0 5 6 7 13 3 8 -5 8 -2 -2 9 -9 12 -10 17 -2 17 9 0 9 5 0 21
-8 16 -8 20 1 14 9 -6 9 -3 1 13 -8 15 -8 22 2 25 9 4 9 6 0 6 -7 1 -13 6 -13
12 0 5 6 7 13 3 8 -5 8 -2 -2 9 -9 12 -10 17 -2 17 9 0 9 5 0 21 -8 16 -8 20
1 14 9 -6 9 -3 1 13 -8 15 -8 22 2 25 9 4 9 6 0 6 -7 1 -13 6 -13 12 0 5 6 7
13 3 8 -5 8 -2 -2 9 -9 12 -10 17 -2 17 9 0 9 5 0 21 -8 16 -8 20 1 14 9 -6 9
-3 1 13 -8 15 -8 22 2 25 9 4 9 6 0 6 -7 1 -13 6 -13 12 0 5 6 7 13 3 8 -5 8
-2 -2 9 -9 12 -10 17 -2 17 9 0 9 5 0 21 -8 16 -8 20 1 14 9 -6 9 -3 1 13 -8
15 -8 22 2 25 9 4 9 6 0 6 -7 1 -13 6 -13 12 0 5 6 7 13 3 8 -5 8 -2 -2 9 -11
14 -11 17 0 17 9 0 10 3 4 8 -12 8 -13 51 -2 69 4 6 2 15 -4 19 -8 4 -7 9 2
15 10 6 11 9 2 9 -7 0 -13 5 -13 11 0 5 6 7 13 3 8 -5 8 -2 -2 9 -7 9 -9 17
-4 17 5 0 9 9 9 20 0 11 -4 20 -9 20 -5 0 -4 6 2 14 9 10 6 17 -13 29 -13 9
-27 13 -30 10 -11 -11 -66 -10 -66 1 0 7 -3 6 -8 -1 -5 -8 -13 -9 -22 -3 -8 5
-21 5 -32 -1 -12 -7 -18 -6 -18 1 0 6 -5 8 -12 4 -18 -11 -68 -12 -68 -2 0 5
-6 6 -12 1 -7 -4 -20 -6 -29 -5 -16 3 -33 -29 -30 -55 1 -7 -2 -13 -7 -13 -5
0 -8 -10 -7 -22 1 -13 -2 -29 -8 -35 -5 -7 -7 -13 -4 -13 4 0 -1 -19 -9 -42
-9 -24 -17 -54 -18 -68 -6 -49 -18 -80 -30 -73 -6 4 -5 0 2 -9 8 -10 9 -18 3
-22 -6 -4 -8 -13 -4 -21 3 -9 -1 -15 -8 -15 -11 0 -11 -3 1 -10 8 -5 10 -10 4
-10 -6 0 -10 -11 -9 -24 2 -14 -2 -27 -9 -29 -7 -3 -13 0 -14 6 -8 67 -16 103
-26 109 -6 4 -7 8 -1 8 5 0 4 5 -3 12 -8 8 -8 15 -1 24 7 8 6 14 -2 20 -8 5
-10 3 -4 -7 5 -8 4 -11 0 -7 -5 5 -9 23 -11 40 -3 42 -7 62 -16 68 -4 3 -8 22
-10 43 -1 27 -6 36 -16 32 -8 -3 -10 0 -5 8 11 18 12 37 2 37 -5 0 -8 3 -7 8
1 4 -3 17 -10 28 -6 12 -9 24 -6 27 3 3 -8 4 -25 3 -17 -1 -33 3 -35 8 -3 7
-5 6 -5 -1 -1 -9 -8 -10 -26 -3 -16 6 -25 6 -25 -1 0 -6 -6 -6 -19 0 -10 6
-21 8 -24 5 -10 -11 -77 -11 -77 -1 0 6 -5 6 -12 0 -15 -10 -28 -11 -43 -1 -6
4 -16 4 -21 0z"/>
<path d="M1239 591 c-1 -9 -2 -31 -3 -49 -1 -36 -18 -52 -48 -44 -15 4 -19 0
-16 -14 2 -12 14 -21 33 -24 29 -5 30 -7 30 -55 0 -47 2 -50 25 -50 l25 0 1
122 c1 120 1 121 -22 126 -17 3 -24 -1 -25 -12z"/>
<path d="M1613 602 c-17 -2 -21 -9 -20 -30 2 -24 -2 -28 -33 -32 -43 -6 -50
-35 -8 -35 33 0 42 -9 43 -43 0 -26 5 -29 44 -23 9 1 9 157 1 164 -3 1 -15 1
-27 -1z"/>
<path d="M1436 592 c-3 -3 -6 -15 -6 -27 0 -29 -34 -71 -72 -91 -30 -15 -30
-16 -9 -30 23 -17 47 -9 89 29 l22 20 23 -21 c29 -27 72 -38 83 -21 5 8 1 17
-11 23 -54 32 -76 59 -71 87 2 16 1 29 -2 30 -4 0 -15 2 -24 4 -9 2 -19 0 -22
-3z"/>
<path d="M337 579 c-42 -12 -57 -28 -57 -64 0 -40 24 -68 71 -84 49 -16 77
-47 63 -69 -15 -23 -66 -27 -103 -8 -39 21 -42 20 -38 -5 5 -33 36 -49 93 -49
42 0 59 5 83 26 26 22 30 31 25 57 -7 40 -12 45 -82 82 -39 21 -57 36 -57 49
0 30 47 38 90 16 l35 -18 0 28 c0 23 -5 30 -27 34 -56 12 -69 13 -96 5z"/>
<path d="M1029 582 c-21 -2 -26 -7 -22 -23 5 -18 12 -20 59 -17 46 2 54 0 54
-14 0 -25 -67 -88 -101 -95 -31 -6 -39 -30 -14 -39 35 -14 123 44 152 99 25
49 33 87 20 88 -34 3 -125 4 -148 1z"/>
<path d="M475 570 c-12 -19 6 -30 50 -30 l44 0 3 -117 c3 -118 3 -118 28 -121
l25 -3 0 121 -1 120 48 0 c34 0 50 5 57 18 9 16 10 16 17 -3 4 -11 23 -41 41
-67 l35 -48 -51 -70 -51 -70 30 0 c24 0 35 9 64 51 l34 51 34 -51 c27 -41 38
-51 62 -51 l28 0 -18 28 c-10 15 -30 45 -46 66 -15 21 -28 43 -28 48 0 5 21
38 46 74 l46 64 -30 0 c-25 0 -35 -8 -62 -50 l-33 -51 -34 51 -34 50 -149 0
c-88 0 -151 -4 -155 -10z"/>
<path d="M1452 422 c-44 -3 -53 -6 -50 -20 3 -14 17 -17 95 -18 51 0 96 -3 99
-7 8 -8 -8 -10 -91 -9 -96 1 -101 -1 -100 -50 l0 -43 123 -3 c117 -2 122 -2
122 18 0 19 -6 20 -101 20 -60 0 -98 4 -94 9 3 6 38 10 78 9 119 -1 113 -3
112 41 0 22 -3 42 -6 45 -7 7 -117 12 -187 8z"/>
<path d="M1049 353 c-2 -16 -3 -40 -1 -55 l3 -28 119 0 c100 0 119 2 124 16 4
9 4 19 2 22 -3 2 -48 4 -101 5 -91 0 -96 2 -94 21 3 39 -1 46 -25 46 -18 0
-25 -6 -27 -27z"/>
</g>
</svg>
